<svg id="favicon" viewBox="0 0 25.115137 12.96625" xmlns="http://www.w3.org/2000/svg">
  <style>
    #g {
      fill: #f69220;
    }

    #dots {
      fill: #ff0000;
      stroke-width: 0.733566;
    }
    
    #r {
      fill: #7157a4;
      stroke-width: 1.1; 
    }

    @media (prefers-color-scheme: dark) {
      #g {
        fill: #fabd78;
      }

      #r {
        fill: #b2a3ce;
      }
    }
  </style>
  <path aria-label="G" id="g"
     d="m 8.5238997,1.6021728e-7 h 0.42845 0.6314 q 0.4735503,0 0.7892503,0.40589998978272 0.33825,0.38334998 0.51865,0.87944995 0.20295,0.4961 0.29315,0.9471 0.0902,0.42845 0.0902,0.51865 0,0.1804 0.02255,0.29315 0.02255,0.0902 0.06765,0.1804 0.0451,0.0902 0.0902,0.1578499 0,0.06765 -0.02255,0.15785 -0.0451,0.15785 -0.15785,0.2706 0,0.15785 -0.02255,0.3157 -0.02255,0.1353 -0.15785,0.1353 -0.11275,0 -0.3608,-0.24805 Q 10.48575,3.7433 10.21515,3.4276 9.8994497,3.0442501 9.5160997,2.5707001 q -0.24805,-0.1353 -0.6765,-0.29315 -0.4059,-0.15785 -0.78925,-0.29315 -0.47355,-0.15785 -0.9696499,-0.29315 -0.7216,0 -1.4432,0.2706 -0.69905,0.2706 -1.2853499,0.78925 -0.56375,0.5186499 -0.96965,1.2627999 -0.38335,0.74415 -0.451,1.69125 0,0.451 -0.0902,0.7215999 -0.0902,0.2706 -0.0902,0.5863 0,0.3157 0.02255,0.5412 0.02255,0.20295 0.15785,0.51865 0.15785,0.47355 0.451,1.01475 0.29315,0.5411999 0.6765,1.0147501 0.4059,0.451 0.9019999,0.7667 0.4961,0.29315 1.05985,0.29315 l 0.8118,-0.2706 q 0.3157,0 0.6764999,-0.2255 0.38335,-0.24805 0.38335,-0.6990502 v -0.451 q -0.0451,-0.2706 -0.11275,-0.5411999 -0.06765,-0.29315 -0.20295,-0.5863 -0.1803999,-0.3157 -0.4509999,-0.6314 -0.24805,-0.33825 -0.42845,-0.42845 -0.3157,-0.11275 -0.3157,-0.3157 0,-0.0902 0.0902,-0.1353 0.11275,-0.06765 0.24805,-0.0902 0.15785,-0.02255 0.3608,-0.02255 h 0.9921999 1.0824 0.42845 q 0.15785,0 0.24805,-0.02255 0.11275,-0.02255 0.2255003,-0.0451 0.11275,-0.0451 0.29315,-0.06765 0.1804,-0.0451 0.4961,-0.0451 0.15785,0.0451 0.29315,0.11275 0.11275,0.0451 0.20295,0.1353 0.11275,0.0902 0.11275,0.1804 0,0.1353 -0.11275,0.451 -0.11275,0.29315 -0.24805,0.29315 h -0.24805 q -0.47355,0 -0.78925,0.3608 -0.2931503,0.3608 -0.2931503,0.65395 V 9.4033498 10.07985 q 0,0.29315 -0.0902,0.451 -0.0902,0.15785 -0.0902,0.4961 0.0451,0.1804 0.06765,0.3608 0.02255,0.15785 0,0.3608 0,0.1804 -0.06765,0.33825 0,0.15785 -0.11275,0.2706 -0.0902,0.0902 -0.20295,0.1804 -0.1353,0.0902 -0.3157,0.1804 l -1.5108499,0.24805 h -0.3608 q -0.0902,0 -0.29315,-0.0451 -0.1804,-0.02255 -0.4059,-0.0902 -0.20295,-0.0451 -0.451,-0.0902 -0.2255,-0.02255 -0.42845,-0.02255 h -0.60885 q -0.11275,0 -0.3157,-0.0451 -0.2029499,-0.0451 -0.3833499,-0.1353 -0.33825,-0.11275 -0.6765,-0.15785 -0.33825,-0.0451 -0.51865,-0.0451 -0.06765,-0.0902 -0.2255,-0.1353 -0.1353,-0.06765 -0.3157,-0.1353 -0.15785,-0.06765 -0.3157,-0.15785 -0.1353,-0.0902 -0.20295,-0.24805 -0.1804,-0.06765 -0.4735499,-0.451 -0.2706,-0.4059 -0.54120003,-0.902 -0.27059999,-0.4961002 -0.47354998,-0.9922002 -0.20295,-0.5186499 -0.20295,-0.8568999 v -0.38335 q 0,-0.1804 -0.13529999,-0.42845 Q 0,7.3738499 0,7.1934499 V 6.3139999 5.70515 q 0.1353,-0.3608 0.24804999,-0.6765 0.0902,-0.2706 0.15785,-0.5412 0.0902,-0.29315 0.0902,-0.47355 L 0.67649998,3.63055 q 0,-0.4960999 0.38335002,-1.0598499 0.38335,-0.56375 0.9019999,-1.05985 0.5412,-0.4961 1.10495,-0.81179996 0.5863,-0.33824999 0.9922,-0.33824999 0.1804,-0.02255 0.33825,-0.0451 0.1352999,-0.02255 0.2705999,-0.0451 0.1353,-0.02255 0.2255,-0.02255 h 0.24805 q 0.33825,0 0.47355,-0.02255 0.15785,-0.0451 0.29315,-0.0902 0.1353,-0.06765 0.3157,-0.0902 Q 6.4267498,1.6021728e-7 6.8326498,1.6021728e-7 h 0.8794499 z"
    />
  <g aria-hidden="true" id="dots">
    <path
       d="m 12.133667,5.7856835 q 0,-0.6066655 0.381332,-0.9533315 0.381333,-0.3639992 1.005332,-0.3639992 0.658665,0 1.039998,0.3639992 0.381332,0.346666 0.381332,0.9533315 0,0.6066655 -0.381332,0.9706648 -0.381333,0.3639993 -1.039998,0.3639993 -0.623999,0 -1.005332,-0.3639993 Q 12.133667,6.392349 12.133667,5.7856835 Z"
       />
    <path
       d="m 12.802973,8.6815381 q 0.06933,0 0.363999,0.173333 0.312,0.1559997 0.641332,0.3986659 0.329333,0.2426662 0.589332,0.5026657 0.277333,0.2599993 0.277333,0.4679993 0,0.121333 -0.277333,0.433332 -0.277332,0.312 -0.641332,0.641332 -0.346666,0.312 -0.693332,0.554666 -0.329332,0.242666 -0.450665,0.242666 -0.190667,0 -0.381333,-0.207999 -0.173333,-0.190667 -0.311999,-0.433333 -0.138667,-0.242666 -0.242667,-0.467999 -0.08667,-0.242666 -0.08667,-0.294666 0,-0.06933 0.138666,-0.346666 0.138667,-0.277333 0.329333,-0.6066656 0.208,-0.3293327 0.398666,-0.6239988 0.207999,-0.3119994 0.346666,-0.4333325 z"
       />
  </g>
  <path aria-label="R" id="r" 
    d="m 15.647138,0.41419984 q 0.414,-0.072 0.882,-0.126 0.486,-0.072 0.954,-0.108 0.486,-0.036 0.936,-0.054 0.45,-0.018 0.828,-0.018 0.882,0 1.728,0.162 0.864,0.162 1.53,0.558 0.684,0.39599996 1.08,1.09799996 0.414,0.684 0.414,1.728 0,1.548 -0.72,2.52 -0.72,0.972 -1.926,1.35 l 0.882,0.558 2.88,4.8060002 h -2.844 l -2.862,-4.9320002 -1.296,-0.234 V 12.8882 h -2.466 z m 3.78,1.88999996 q -0.378,0 -0.756,0.018 -0.36,0.018 -0.558,0.072 v 3.654 h 1.044 q 1.026,0 1.638,-0.468 0.612,-0.468 0.612,-1.548 0,-0.81 -0.504,-1.26 -0.504,-0.468 -1.476,-0.468 z"
    />
</svg>
